<?xml version="1.0" encoding="UTF-8" standalone="no"?>
<!DOCTYPE svg PUBLIC "-//W3C//DTD SVG 1.1//EN"
 "http://www.w3.org/Graphics/SVG/1.1/DTD/svg11.dtd">
<!-- Generated by graphviz version 2.38.0 (20140413.2041)
 -->
<!-- Title: %3 Pages: 1 -->
<svg width="744pt" height="631pt"
 viewBox="0.00 0.00 743.50 631.00" xmlns="http://www.w3.org/2000/svg" xmlns:xlink="http://www.w3.org/1999/xlink">
<g id="graph0" class="graph" transform="scale(1 1) rotate(0) translate(4 627)">
<title>%3</title>
<polygon fill="white" stroke="none" points="-4,4 -4,-627 739.5,-627 739.5,4 -4,4"/>
<!-- 1 -->
<g id="node1" class="node"><title>1</title>
<polygon fill="#0ab11e" stroke="#0ab11e" points="75,-542 0,-542 0,-490 75,-490 75,-542"/>
<text text-anchor="middle" x="37.5" y="-530" font-family="Arial" font-size="10.00" fill="#ffffff">other_module</text>
<text text-anchor="middle" x="37.5" y="-519" font-family="Arial" font-size="10.00" fill="#ffffff">46.95%</text>
<text text-anchor="middle" x="37.5" y="-508" font-family="Arial" font-size="10.00" fill="#ffffff">(46.95%)</text>
<text text-anchor="middle" x="37.5" y="-497" font-family="Arial" font-size="10.00" fill="#ffffff">1×</text>
</g>
<!-- 2 -->
<g id="node2" class="node"><title>2</title>
<polygon fill="#0ab11e" stroke="#0ab11e" points="62.5,-623 12.5,-623 12.5,-582 62.5,-582 62.5,-623"/>
<text text-anchor="middle" x="37.5" y="-611" font-family="Arial" font-size="10.00" fill="#ffffff">_start</text>
<text text-anchor="middle" x="37.5" y="-600" font-family="Arial" font-size="10.00" fill="#ffffff">46.95%</text>
<text text-anchor="middle" x="37.5" y="-589" font-family="Arial" font-size="10.00" fill="#ffffff">(0.00%)</text>
</g>
<!-- 2&#45;&gt;1 -->
<g id="edge1" class="edge"><title>2&#45;&gt;1</title>
<path fill="none" stroke="#0ab11e" stroke-width="1.88" d="M37.5,-581.902C37.5,-572.223 37.5,-560.293 37.5,-549.312"/>
<polygon fill="#0ab11e" stroke="#0ab11e" stroke-width="1.88" points="39.9151,-549.167 37.5,-542.267 35.0851,-549.167 39.9151,-549.167"/>
<text text-anchor="middle" x="54.5" y="-565" font-family="Arial" font-size="10.00" fill="#0ab11e">46.95%</text>
<text text-anchor="middle" x="54.5" y="-554" font-family="Arial" font-size="10.00" fill="#0ab11e">1×</text>
</g>
<!-- 3 -->
<g id="node3" class="node"><title>3</title>
<polygon fill="#0aaf2a" stroke="#0aaf2a" points="471.5,-623 375.5,-623 375.5,-582 471.5,-582 471.5,-623"/>
<text text-anchor="middle" x="423.5" y="-611" font-family="Arial" font-size="10.00" fill="#ffffff">__gnu_mcount_nc</text>
<text text-anchor="middle" x="423.5" y="-600" font-family="Arial" font-size="10.00" fill="#ffffff">45.17%</text>
<text text-anchor="middle" x="423.5" y="-589" font-family="Arial" font-size="10.00" fill="#ffffff">(0.73%)</text>
</g>
<!-- 4 -->
<g id="node4" class="node"><title>4</title>
<polygon fill="#0aae2f" stroke="#0aae2f" points="145,-542 84,-542 84,-490 145,-490 145,-542"/>
<text text-anchor="middle" x="114.5" y="-530" font-family="Arial" font-size="10.00" fill="#ffffff">memmove</text>
<text text-anchor="middle" x="114.5" y="-519" font-family="Arial" font-size="10.00" fill="#ffffff">44.36%</text>
<text text-anchor="middle" x="114.5" y="-508" font-family="Arial" font-size="10.00" fill="#ffffff">(0.08%)</text>
<text text-anchor="middle" x="114.5" y="-497" font-family="Arial" font-size="10.00" fill="#ffffff">730828×</text>
</g>
<!-- 3&#45;&gt;4 -->
<g id="edge2" class="edge"><title>3&#45;&gt;4</title>
<path fill="none" stroke="#0aae2f" stroke-width="1.77" d="M375.414,-599.921C312.106,-597.194 204.709,-590.142 169.5,-573 157.188,-567.006 146.068,-557.09 137.101,-547.254"/>
<polygon fill="#0aae2f" stroke="#0aae2f" stroke-width="1.77" points="138.794,-545.628 132.612,-542.138 135.269,-548.721 138.794,-545.628"/>
<text text-anchor="middle" x="188.5" y="-565" font-family="Arial" font-size="10.00" fill="#0aae2f">44.36%</text>
<text text-anchor="middle" x="188.5" y="-554" font-family="Arial" font-size="10.00" fill="#0aae2f">730828×</text>
</g>
<!-- 7 -->
<g id="node5" class="node"><title>7</title>
<polygon fill="#0d0d73" stroke="#0d0d73" points="271.5,-542 217.5,-542 217.5,-490 271.5,-490 271.5,-542"/>
<text text-anchor="middle" x="244.5" y="-530" font-family="Arial" font-size="10.00" fill="#ffffff">strncmp</text>
<text text-anchor="middle" x="244.5" y="-519" font-family="Arial" font-size="10.00" fill="#ffffff">0.08%</text>
<text text-anchor="middle" x="244.5" y="-508" font-family="Arial" font-size="10.00" fill="#ffffff">(0.04%)</text>
<text text-anchor="middle" x="244.5" y="-497" font-family="Arial" font-size="10.00" fill="#ffffff">268062×</text>
</g>
<!-- 3&#45;&gt;7 -->
<g id="edge3" class="edge"><title>3&#45;&gt;7</title>
<path fill="none" stroke="#0d0d73" stroke-width="0.5" d="M375.207,-599.359C348.022,-596.263 314.434,-589.131 288.5,-573 277.368,-566.076 267.909,-555.281 260.647,-545.009"/>
<polygon fill="#0d0d73" stroke="#0d0d73" stroke-width="0.5" points="261.655,-544.313 258.658,-542.129 259.639,-545.705 261.655,-544.313"/>
<text text-anchor="middle" x="307.5" y="-565" font-family="Arial" font-size="10.00" fill="#0d0d73">0.08%</text>
<text text-anchor="middle" x="307.5" y="-554" font-family="Arial" font-size="10.00" fill="#0d0d73">268062×</text>
</g>
<!-- 10 -->
<g id="node6" class="node"><title>10</title>
<polygon fill="#0d0d73" stroke="#0d0d73" points="208.5,-542 154.5,-542 154.5,-490 208.5,-490 208.5,-542"/>
<text text-anchor="middle" x="181.5" y="-530" font-family="Arial" font-size="10.00" fill="#ffffff">memcpy</text>
<text text-anchor="middle" x="181.5" y="-519" font-family="Arial" font-size="10.00" fill="#ffffff">0.00%</text>
<text text-anchor="middle" x="181.5" y="-508" font-family="Arial" font-size="10.00" fill="#ffffff">(0.00%)</text>
<text text-anchor="middle" x="181.5" y="-497" font-family="Arial" font-size="10.00" fill="#ffffff">2×</text>
</g>
<!-- 3&#45;&gt;10 -->
<g id="edge4" class="edge"><title>3&#45;&gt;10</title>
<path fill="none" stroke="#0d0d73" stroke-width="0.5" d="M375.081,-597.612C327.931,-593.208 260.036,-585.039 236.5,-573 223.415,-566.306 211.592,-555.312 202.291,-544.83"/>
<polygon fill="#0d0d73" stroke="#0d0d73" stroke-width="0.5" points="203.205,-544.013 199.982,-542.179 201.357,-545.622 203.205,-544.013"/>
<text text-anchor="middle" x="250.5" y="-565" font-family="Arial" font-size="10.00" fill="#0d0d73">0.00%</text>
<text text-anchor="middle" x="250.5" y="-554" font-family="Arial" font-size="10.00" fill="#0d0d73">2×</text>
</g>
<!-- 11 -->
<g id="node7" class="node"><title>11</title>
<polygon fill="#0d0d73" stroke="#0d0d73" points="330.5,-542 280.5,-542 280.5,-490 330.5,-490 330.5,-542"/>
<text text-anchor="middle" x="305.5" y="-530" font-family="Arial" font-size="10.00" fill="#ffffff">clock</text>
<text text-anchor="middle" x="305.5" y="-519" font-family="Arial" font-size="10.00" fill="#ffffff">0.00%</text>
<text text-anchor="middle" x="305.5" y="-508" font-family="Arial" font-size="10.00" fill="#ffffff">(0.00%)</text>
<text text-anchor="middle" x="305.5" y="-497" font-family="Arial" font-size="10.00" fill="#ffffff">940×</text>
</g>
<!-- 3&#45;&gt;11 -->
<g id="edge5" class="edge"><title>3&#45;&gt;11</title>
<path fill="none" stroke="#0d0d73" stroke-width="0.5" d="M375.283,-586.82C366.606,-583.05 357.959,-578.473 350.5,-573 340.203,-565.444 330.943,-554.972 323.538,-545.126"/>
<polygon fill="#0d0d73" stroke="#0d0d73" stroke-width="0.5" points="324.365,-544.183 321.301,-542.094 322.393,-545.638 324.365,-544.183"/>
<text text-anchor="middle" x="364.5" y="-565" font-family="Arial" font-size="10.00" fill="#0d0d73">0.00%</text>
<text text-anchor="middle" x="364.5" y="-554" font-family="Arial" font-size="10.00" fill="#0d0d73">940×</text>
</g>
<!-- 14 -->
<g id="node8" class="node"><title>14</title>
<polygon fill="#0d0d73" stroke="#0d0d73" points="389.5,-542 339.5,-542 339.5,-490 389.5,-490 389.5,-542"/>
<text text-anchor="middle" x="364.5" y="-530" font-family="Arial" font-size="10.00" fill="#ffffff">strcmp</text>
<text text-anchor="middle" x="364.5" y="-519" font-family="Arial" font-size="10.00" fill="#ffffff">0.00%</text>
<text text-anchor="middle" x="364.5" y="-508" font-family="Arial" font-size="10.00" fill="#ffffff">(0.00%)</text>
<text text-anchor="middle" x="364.5" y="-497" font-family="Arial" font-size="10.00" fill="#ffffff">240×</text>
</g>
<!-- 3&#45;&gt;14 -->
<g id="edge6" class="edge"><title>3&#45;&gt;14</title>
<path fill="none" stroke="#0d0d73" stroke-width="0.5" d="M400.986,-581.739C398.314,-578.936 395.744,-575.986 393.5,-573 387.173,-564.581 381.507,-554.583 376.898,-545.381"/>
<polygon fill="#0d0d73" stroke="#0d0d73" stroke-width="0.5" points="377.894,-544.63 375.248,-542.031 375.696,-545.712 377.894,-544.63"/>
<text text-anchor="middle" x="407.5" y="-565" font-family="Arial" font-size="10.00" fill="#0d0d73">0.00%</text>
<text text-anchor="middle" x="407.5" y="-554" font-family="Arial" font-size="10.00" fill="#0d0d73">240×</text>
</g>
<!-- 17 -->
<g id="node9" class="node"><title>17</title>
<polygon fill="#0d0d73" stroke="#0d0d73" points="448.5,-542 398.5,-542 398.5,-490 448.5,-490 448.5,-542"/>
<text text-anchor="middle" x="423.5" y="-530" font-family="Arial" font-size="10.00" fill="#ffffff">free</text>
<text text-anchor="middle" x="423.5" y="-519" font-family="Arial" font-size="10.00" fill="#ffffff">0.00%</text>
<text text-anchor="middle" x="423.5" y="-508" font-family="Arial" font-size="10.00" fill="#ffffff">(0.00%)</text>
<text text-anchor="middle" x="423.5" y="-497" font-family="Arial" font-size="10.00" fill="#ffffff">99×</text>
</g>
<!-- 3&#45;&gt;17 -->
<g id="edge7" class="edge"><title>3&#45;&gt;17</title>
<path fill="none" stroke="#0d0d73" stroke-width="0.5" d="M423.5,-581.902C423.5,-571.209 423.5,-557.769 423.5,-545.896"/>
<polygon fill="#0d0d73" stroke="#0d0d73" stroke-width="0.5" points="424.725,-545.767 423.5,-542.267 422.275,-545.767 424.725,-545.767"/>
<text text-anchor="middle" x="437.5" y="-565" font-family="Arial" font-size="10.00" fill="#0d0d73">0.00%</text>
<text text-anchor="middle" x="437.5" y="-554" font-family="Arial" font-size="10.00" fill="#0d0d73">99×</text>
</g>
<!-- 21 -->
<g id="node10" class="node"><title>21</title>
<polygon fill="#0d0d73" stroke="#0d0d73" points="507.5,-542 457.5,-542 457.5,-490 507.5,-490 507.5,-542"/>
<text text-anchor="middle" x="482.5" y="-530" font-family="Arial" font-size="10.00" fill="#ffffff">malloc</text>
<text text-anchor="middle" x="482.5" y="-519" font-family="Arial" font-size="10.00" fill="#ffffff">0.00%</text>
<text text-anchor="middle" x="482.5" y="-508" font-family="Arial" font-size="10.00" fill="#ffffff">(0.00%)</text>
<text text-anchor="middle" x="482.5" y="-497" font-family="Arial" font-size="10.00" fill="#ffffff">99×</text>
</g>
<!-- 3&#45;&gt;21 -->
<g id="edge8" class="edge"><title>3&#45;&gt;21</title>
<path fill="none" stroke="#0d0d73" stroke-width="0.5" d="M446.014,-581.739C448.686,-578.936 451.256,-575.986 453.5,-573 459.827,-564.581 465.493,-554.583 470.102,-545.381"/>
<polygon fill="#0d0d73" stroke="#0d0d73" stroke-width="0.5" points="471.304,-545.712 471.752,-542.031 469.106,-544.63 471.304,-545.712"/>
<text text-anchor="middle" x="481.5" y="-565" font-family="Arial" font-size="10.00" fill="#0d0d73">0.00%</text>
<text text-anchor="middle" x="481.5" y="-554" font-family="Arial" font-size="10.00" fill="#0d0d73">99×</text>
</g>
<!-- 23 -->
<g id="node11" class="node"><title>23</title>
<polygon fill="#0d0d73" stroke="#0d0d73" points="568.5,-542 518.5,-542 518.5,-490 568.5,-490 568.5,-542"/>
<text text-anchor="middle" x="543.5" y="-530" font-family="Arial" font-size="10.00" fill="#ffffff">toupper</text>
<text text-anchor="middle" x="543.5" y="-519" font-family="Arial" font-size="10.00" fill="#ffffff">0.00%</text>
<text text-anchor="middle" x="543.5" y="-508" font-family="Arial" font-size="10.00" fill="#ffffff">(0.00%)</text>
<text text-anchor="middle" x="543.5" y="-497" font-family="Arial" font-size="10.00" fill="#ffffff">99×</text>
</g>
<!-- 3&#45;&gt;23 -->
<g id="edge9" class="edge"><title>3&#45;&gt;23</title>
<path fill="none" stroke="#0d0d73" stroke-width="0.5" d="M471.707,-583.46C484.968,-578.395 496.133,-573.987 497.5,-573 507.946,-565.457 517.396,-554.988 524.974,-545.141"/>
<polygon fill="#0d0d73" stroke="#0d0d73" stroke-width="0.5" points="526.133,-545.64 527.265,-542.108 524.178,-544.163 526.133,-545.64"/>
<text text-anchor="middle" x="534.5" y="-565" font-family="Arial" font-size="10.00" fill="#0d0d73">0.00%</text>
<text text-anchor="middle" x="534.5" y="-554" font-family="Arial" font-size="10.00" fill="#0d0d73">99×</text>
</g>
<!-- 26 -->
<g id="node12" class="node"><title>26</title>
<polygon fill="#0d0d73" stroke="#0d0d73" points="734.5,-481 684.5,-481 684.5,-429 734.5,-429 734.5,-481"/>
<text text-anchor="middle" x="709.5" y="-469" font-family="Arial" font-size="10.00" fill="#ffffff">strlen</text>
<text text-anchor="middle" x="709.5" y="-458" font-family="Arial" font-size="10.00" fill="#ffffff">0.00%</text>
<text text-anchor="middle" x="709.5" y="-447" font-family="Arial" font-size="10.00" fill="#ffffff">(0.00%)</text>
<text text-anchor="middle" x="709.5" y="-436" font-family="Arial" font-size="10.00" fill="#ffffff">22×</text>
</g>
<!-- 3&#45;&gt;26 -->
<g id="edge10" class="edge"><title>3&#45;&gt;26</title>
<path fill="none" stroke="#0d0d73" stroke-width="0.5" d="M471.559,-583.114C473.216,-582.705 474.867,-582.332 476.5,-582 496.886,-577.861 646.596,-585.123 663.5,-573 691.677,-552.792 702.598,-512.607 706.828,-485.022"/>
<polygon fill="#0d0d73" stroke="#0d0d73" stroke-width="0.5" points="708.065,-485.026 707.358,-481.385 705.641,-484.672 708.065,-485.026"/>
<text text-anchor="middle" x="696.5" y="-565" font-family="Arial" font-size="10.00" fill="#0d0d73">0.00%</text>
<text text-anchor="middle" x="696.5" y="-554" font-family="Arial" font-size="10.00" fill="#0d0d73">22×</text>
</g>
<!-- 28 -->
<g id="node13" class="node"><title>28</title>
<polygon fill="#0d0d73" stroke="#0d0d73" points="628.5,-481 578.5,-481 578.5,-429 628.5,-429 628.5,-481"/>
<text text-anchor="middle" x="603.5" y="-469" font-family="Arial" font-size="10.00" fill="#ffffff">strchr</text>
<text text-anchor="middle" x="603.5" y="-458" font-family="Arial" font-size="10.00" fill="#ffffff">0.00%</text>
<text text-anchor="middle" x="603.5" y="-447" font-family="Arial" font-size="10.00" fill="#ffffff">(0.00%)</text>
<text text-anchor="middle" x="603.5" y="-436" font-family="Arial" font-size="10.00" fill="#ffffff">11×</text>
</g>
<!-- 3&#45;&gt;28 -->
<g id="edge11" class="edge"><title>3&#45;&gt;28</title>
<path fill="none" stroke="#0d0d73" stroke-width="0.5" d="M471.593,-583.269C473.241,-582.816 474.88,-582.391 476.5,-582 508.707,-574.228 522.037,-589.958 550.5,-573 581.301,-554.649 594.319,-513.198 599.741,-484.902"/>
<polygon fill="#0d0d73" stroke="#0d0d73" stroke-width="0.5" points="600.998,-484.837 600.426,-481.173 598.589,-484.394 600.998,-484.837"/>
<text text-anchor="middle" x="587.5" y="-565" font-family="Arial" font-size="10.00" fill="#0d0d73">0.00%</text>
<text text-anchor="middle" x="587.5" y="-554" font-family="Arial" font-size="10.00" fill="#0d0d73">11×</text>
</g>
<!-- 33 -->
<g id="node14" class="node"><title>33</title>
<polygon fill="#0d0d73" stroke="#0d0d73" points="667.5,-542 617.5,-542 617.5,-490 667.5,-490 667.5,-542"/>
<text text-anchor="middle" x="642.5" y="-530" font-family="Arial" font-size="10.00" fill="#ffffff">strstr</text>
<text text-anchor="middle" x="642.5" y="-519" font-family="Arial" font-size="10.00" fill="#ffffff">0.00%</text>
<text text-anchor="middle" x="642.5" y="-508" font-family="Arial" font-size="10.00" fill="#ffffff">(0.00%)</text>
<text text-anchor="middle" x="642.5" y="-497" font-family="Arial" font-size="10.00" fill="#ffffff">1×</text>
</g>
<!-- 3&#45;&gt;33 -->
<g id="edge12" class="edge"><title>3&#45;&gt;33</title>
<path fill="none" stroke="#0d0d73" stroke-width="0.5" d="M471.566,-583.149C473.222,-582.731 474.869,-582.345 476.5,-582 506.783,-575.59 589.833,-590.301 615.5,-573 624.988,-566.604 631.248,-555.902 635.327,-545.557"/>
<polygon fill="#0d0d73" stroke="#0d0d73" stroke-width="0.5" points="636.552,-545.776 636.628,-542.069 634.257,-544.92 636.552,-545.776"/>
<text text-anchor="middle" x="647.5" y="-565" font-family="Arial" font-size="10.00" fill="#0d0d73">0.00%</text>
<text text-anchor="middle" x="647.5" y="-554" font-family="Arial" font-size="10.00" fill="#0d0d73">1×</text>
</g>
<!-- 5 -->
<g id="node15" class="node"><title>5</title>
<polygon fill="#0aae30" stroke="#0aae30" points="162,-420 93,-420 93,-368 162,-368 162,-420"/>
<text text-anchor="middle" x="127.5" y="-408" font-family="Arial" font-size="10.00" fill="#ffffff">lib_memcpy</text>
<text text-anchor="middle" x="127.5" y="-397" font-family="Arial" font-size="10.00" fill="#ffffff">44.28%</text>
<text text-anchor="middle" x="127.5" y="-386" font-family="Arial" font-size="10.00" fill="#ffffff">(44.28%)</text>
<text text-anchor="middle" x="127.5" y="-375" font-family="Arial" font-size="10.00" fill="#ffffff">730830×</text>
</g>
<!-- 4&#45;&gt;5 -->
<g id="edge13" class="edge"><title>4&#45;&gt;5</title>
<path fill="none" stroke="#0aae30" stroke-width="1.77" d="M116.493,-489.75C117.934,-472.593 120.053,-449.397 122.5,-429 122.575,-428.378 122.652,-427.75 122.73,-427.117"/>
<polygon fill="#0aae30" stroke="#0aae30" stroke-width="1.77" points="125.087,-427.18 123.637,-420.231 120.437,-426.568 125.087,-427.18"/>
<text text-anchor="middle" x="141.5" y="-458" font-family="Arial" font-size="10.00" fill="#0aae30">44.28%</text>
<text text-anchor="middle" x="141.5" y="-447" font-family="Arial" font-size="10.00" fill="#0aae30">730828×</text>
</g>
<!-- 8 -->
<g id="node17" class="node"><title>8</title>
<polygon fill="#0d0d73" stroke="#0d0d73" points="249,-420 182,-420 182,-368 249,-368 249,-420"/>
<text text-anchor="middle" x="215.5" y="-408" font-family="Arial" font-size="10.00" fill="#ffffff">lib_strncmp</text>
<text text-anchor="middle" x="215.5" y="-397" font-family="Arial" font-size="10.00" fill="#ffffff">0.04%</text>
<text text-anchor="middle" x="215.5" y="-386" font-family="Arial" font-size="10.00" fill="#ffffff">(0.04%)</text>
<text text-anchor="middle" x="215.5" y="-375" font-family="Arial" font-size="10.00" fill="#ffffff">268062×</text>
</g>
<!-- 7&#45;&gt;8 -->
<g id="edge14" class="edge"><title>7&#45;&gt;8</title>
<path fill="none" stroke="#0d0d73" stroke-width="0.5" d="M238.421,-489.844C233.742,-470.484 227.273,-443.716 222.4,-423.553"/>
<polygon fill="#0d0d73" stroke="#0d0d73" stroke-width="0.5" points="223.584,-423.237 221.571,-420.123 221.203,-423.813 223.584,-423.237"/>
<text text-anchor="middle" x="255.5" y="-458" font-family="Arial" font-size="10.00" fill="#0d0d73">0.04%</text>
<text text-anchor="middle" x="255.5" y="-447" font-family="Arial" font-size="10.00" fill="#0d0d73">268062×</text>
</g>
<!-- 10&#45;&gt;5 -->
<g id="edge15" class="edge"><title>10&#45;&gt;5</title>
<path fill="none" stroke="#0d0d73" stroke-width="0.5" d="M178.006,-489.724C174.785,-471.926 168.879,-447.985 158.5,-429 157.444,-427.068 156.256,-425.158 154.976,-423.288"/>
<polygon fill="#0d0d73" stroke="#0d0d73" stroke-width="0.5" points="155.931,-422.516 152.897,-420.384 153.939,-423.942 155.931,-422.516"/>
<text text-anchor="middle" x="190.5" y="-458" font-family="Arial" font-size="10.00" fill="#0d0d73">0.00%</text>
<text text-anchor="middle" x="190.5" y="-447" font-family="Arial" font-size="10.00" fill="#0d0d73">2×</text>
</g>
<!-- 12 -->
<g id="node19" class="node"><title>12</title>
<polygon fill="#0d0d73" stroke="#0d0d73" points="313,-420 258,-420 258,-368 313,-368 313,-420"/>
<text text-anchor="middle" x="285.5" y="-408" font-family="Arial" font-size="10.00" fill="#ffffff">lib_clock</text>
<text text-anchor="middle" x="285.5" y="-397" font-family="Arial" font-size="10.00" fill="#ffffff">0.00%</text>
<text text-anchor="middle" x="285.5" y="-386" font-family="Arial" font-size="10.00" fill="#ffffff">(0.00%)</text>
<text text-anchor="middle" x="285.5" y="-375" font-family="Arial" font-size="10.00" fill="#ffffff">940×</text>
</g>
<!-- 11&#45;&gt;12 -->
<g id="edge16" class="edge"><title>11&#45;&gt;12</title>
<path fill="none" stroke="#0d0d73" stroke-width="0.5" d="M301.307,-489.844C298.107,-470.644 293.693,-444.158 290.342,-424.054"/>
<polygon fill="#0d0d73" stroke="#0d0d73" stroke-width="0.5" points="291.471,-423.374 289.687,-420.123 289.054,-423.777 291.471,-423.374"/>
<text text-anchor="middle" x="314.5" y="-458" font-family="Arial" font-size="10.00" fill="#0d0d73">0.00%</text>
<text text-anchor="middle" x="314.5" y="-447" font-family="Arial" font-size="10.00" fill="#0d0d73">940×</text>
</g>
<!-- 13 -->
<g id="node20" class="node"><title>13</title>
<polygon fill="#0d0d73" stroke="#0d0d73" points="384.5,-420 322.5,-420 322.5,-368 384.5,-368 384.5,-420"/>
<text text-anchor="middle" x="353.5" y="-408" font-family="Arial" font-size="10.00" fill="#ffffff">lib_strcmp</text>
<text text-anchor="middle" x="353.5" y="-397" font-family="Arial" font-size="10.00" fill="#ffffff">0.00%</text>
<text text-anchor="middle" x="353.5" y="-386" font-family="Arial" font-size="10.00" fill="#ffffff">(0.00%)</text>
<text text-anchor="middle" x="353.5" y="-375" font-family="Arial" font-size="10.00" fill="#ffffff">240×</text>
</g>
<!-- 14&#45;&gt;13 -->
<g id="edge17" class="edge"><title>14&#45;&gt;13</title>
<path fill="none" stroke="#0d0d73" stroke-width="0.5" d="M362.194,-489.844C360.434,-470.644 358.006,-444.158 356.163,-424.054"/>
<polygon fill="#0d0d73" stroke="#0d0d73" stroke-width="0.5" points="357.342,-423.496 355.803,-420.123 354.903,-423.72 357.342,-423.496"/>
<text text-anchor="middle" x="375.5" y="-458" font-family="Arial" font-size="10.00" fill="#0d0d73">0.00%</text>
<text text-anchor="middle" x="375.5" y="-447" font-family="Arial" font-size="10.00" fill="#0d0d73">240×</text>
</g>
<!-- 18 -->
<g id="node25" class="node"><title>18</title>
<polygon fill="#0d0d73" stroke="#0d0d73" points="443.5,-420 393.5,-420 393.5,-368 443.5,-368 443.5,-420"/>
<text text-anchor="middle" x="418.5" y="-408" font-family="Arial" font-size="10.00" fill="#ffffff">lib_free</text>
<text text-anchor="middle" x="418.5" y="-397" font-family="Arial" font-size="10.00" fill="#ffffff">0.00%</text>
<text text-anchor="middle" x="418.5" y="-386" font-family="Arial" font-size="10.00" fill="#ffffff">(0.00%)</text>
<text text-anchor="middle" x="418.5" y="-375" font-family="Arial" font-size="10.00" fill="#ffffff">99×</text>
</g>
<!-- 17&#45;&gt;18 -->
<g id="edge20" class="edge"><title>17&#45;&gt;18</title>
<path fill="none" stroke="#0d0d73" stroke-width="0.5" d="M422.452,-489.844C421.652,-470.644 420.548,-444.158 419.711,-424.054"/>
<polygon fill="#0d0d73" stroke="#0d0d73" stroke-width="0.5" points="420.917,-423.569 419.547,-420.123 418.469,-423.671 420.917,-423.569"/>
<text text-anchor="middle" x="436.5" y="-458" font-family="Arial" font-size="10.00" fill="#0d0d73">0.00%</text>
<text text-anchor="middle" x="436.5" y="-447" font-family="Arial" font-size="10.00" fill="#0d0d73">99×</text>
</g>
<!-- 19 -->
<g id="node26" class="node"><title>19</title>
<polygon fill="#0d0d73" stroke="#0d0d73" points="512.5,-420 452.5,-420 452.5,-368 512.5,-368 512.5,-420"/>
<text text-anchor="middle" x="482.5" y="-408" font-family="Arial" font-size="10.00" fill="#ffffff">lib_malloc</text>
<text text-anchor="middle" x="482.5" y="-397" font-family="Arial" font-size="10.00" fill="#ffffff">0.00%</text>
<text text-anchor="middle" x="482.5" y="-386" font-family="Arial" font-size="10.00" fill="#ffffff">(0.00%)</text>
<text text-anchor="middle" x="482.5" y="-375" font-family="Arial" font-size="10.00" fill="#ffffff">99×</text>
</g>
<!-- 21&#45;&gt;19 -->
<g id="edge24" class="edge"><title>21&#45;&gt;19</title>
<path fill="none" stroke="#0d0d73" stroke-width="0.5" d="M482.5,-489.844C482.5,-470.644 482.5,-444.158 482.5,-424.054"/>
<polygon fill="#0d0d73" stroke="#0d0d73" stroke-width="0.5" points="483.725,-423.623 482.5,-420.123 481.275,-423.623 483.725,-423.623"/>
<text text-anchor="middle" x="496.5" y="-458" font-family="Arial" font-size="10.00" fill="#0d0d73">0.00%</text>
<text text-anchor="middle" x="496.5" y="-447" font-family="Arial" font-size="10.00" fill="#0d0d73">99×</text>
</g>
<!-- 20 -->
<g id="node28" class="node"><title>20</title>
<polygon fill="#0d0d73" stroke="#0d0d73" points="585.5,-420 521.5,-420 521.5,-368 585.5,-368 585.5,-420"/>
<text text-anchor="middle" x="553.5" y="-408" font-family="Arial" font-size="10.00" fill="#ffffff">lib_toupper</text>
<text text-anchor="middle" x="553.5" y="-397" font-family="Arial" font-size="10.00" fill="#ffffff">0.00%</text>
<text text-anchor="middle" x="553.5" y="-386" font-family="Arial" font-size="10.00" fill="#ffffff">(0.00%)</text>
<text text-anchor="middle" x="553.5" y="-375" font-family="Arial" font-size="10.00" fill="#ffffff">99×</text>
</g>
<!-- 23&#45;&gt;20 -->
<g id="edge25" class="edge"><title>23&#45;&gt;20</title>
<path fill="none" stroke="#0d0d73" stroke-width="0.5" d="M542.713,-489.684C542.515,-472.498 542.905,-449.295 545.5,-429 545.719,-427.286 545.989,-425.532 546.295,-423.768"/>
<polygon fill="#0d0d73" stroke="#0d0d73" stroke-width="0.5" points="547.533,-423.809 546.969,-420.144 545.124,-423.361 547.533,-423.809"/>
<text text-anchor="middle" x="559.5" y="-458" font-family="Arial" font-size="10.00" fill="#0d0d73">0.00%</text>
<text text-anchor="middle" x="559.5" y="-447" font-family="Arial" font-size="10.00" fill="#0d0d73">99×</text>
</g>
<!-- 25 -->
<g id="node29" class="node"><title>25</title>
<polygon fill="#0d0d73" stroke="#0d0d73" points="727.5,-328 671.5,-328 671.5,-276 727.5,-276 727.5,-328"/>
<text text-anchor="middle" x="699.5" y="-316" font-family="Arial" font-size="10.00" fill="#ffffff">lib_strlen</text>
<text text-anchor="middle" x="699.5" y="-305" font-family="Arial" font-size="10.00" fill="#ffffff">0.00%</text>
<text text-anchor="middle" x="699.5" y="-294" font-family="Arial" font-size="10.00" fill="#ffffff">(0.00%)</text>
<text text-anchor="middle" x="699.5" y="-283" font-family="Arial" font-size="10.00" fill="#ffffff">23×</text>
</g>
<!-- 26&#45;&gt;25 -->
<g id="edge26" class="edge"><title>26&#45;&gt;25</title>
<path fill="none" stroke="#0d0d73" stroke-width="0.5" d="M708.69,-428.862C707.812,-405.147 706.168,-368.617 703.5,-337 703.358,-335.312 703.197,-333.579 703.025,-331.831"/>
<polygon fill="#0d0d73" stroke="#0d0d73" stroke-width="0.5" points="704.232,-331.589 702.656,-328.232 701.794,-331.839 704.232,-331.589"/>
<text text-anchor="middle" x="721.5" y="-397" font-family="Arial" font-size="10.00" fill="#0d0d73">0.00%</text>
<text text-anchor="middle" x="721.5" y="-386" font-family="Arial" font-size="10.00" fill="#0d0d73">22×</text>
</g>
<!-- 27 -->
<g id="node30" class="node"><title>27</title>
<polygon fill="#0d0d73" stroke="#0d0d73" points="650,-328 595,-328 595,-276 650,-276 650,-328"/>
<text text-anchor="middle" x="622.5" y="-316" font-family="Arial" font-size="10.00" fill="#ffffff">lib_index</text>
<text text-anchor="middle" x="622.5" y="-305" font-family="Arial" font-size="10.00" fill="#ffffff">0.00%</text>
<text text-anchor="middle" x="622.5" y="-294" font-family="Arial" font-size="10.00" fill="#ffffff">(0.00%)</text>
<text text-anchor="middle" x="622.5" y="-283" font-family="Arial" font-size="10.00" fill="#ffffff">12×</text>
</g>
<!-- 28&#45;&gt;27 -->
<g id="edge27" class="edge"><title>28&#45;&gt;27</title>
<path fill="none" stroke="#0d0d73" stroke-width="0.5" d="M603.481,-428.678C603.761,-411.489 604.711,-388.286 607.5,-368 609.158,-355.939 611.984,-342.822 614.739,-331.551"/>
<polygon fill="#0d0d73" stroke="#0d0d73" stroke-width="0.5" points="615.937,-331.808 615.59,-328.116 613.559,-331.218 615.937,-331.808"/>
<text text-anchor="middle" x="621.5" y="-397" font-family="Arial" font-size="10.00" fill="#0d0d73">0.00%</text>
<text text-anchor="middle" x="621.5" y="-386" font-family="Arial" font-size="10.00" fill="#0d0d73">11×</text>
</g>
<!-- 31 -->
<g id="node34" class="node"><title>31</title>
<polygon fill="#0d0d73" stroke="#0d0d73" points="694.5,-420 640.5,-420 640.5,-368 694.5,-368 694.5,-420"/>
<text text-anchor="middle" x="667.5" y="-408" font-family="Arial" font-size="10.00" fill="#ffffff">lib_strstr</text>
<text text-anchor="middle" x="667.5" y="-397" font-family="Arial" font-size="10.00" fill="#ffffff">0.00%</text>
<text text-anchor="middle" x="667.5" y="-386" font-family="Arial" font-size="10.00" fill="#ffffff">(0.00%)</text>
<text text-anchor="middle" x="667.5" y="-375" font-family="Arial" font-size="10.00" fill="#ffffff">1×</text>
</g>
<!-- 33&#45;&gt;31 -->
<g id="edge32" class="edge"><title>33&#45;&gt;31</title>
<path fill="none" stroke="#0d0d73" stroke-width="0.5" d="M643.444,-489.786C644.574,-472.442 647.055,-449.016 652.5,-429 652.963,-427.3 653.497,-425.575 654.083,-423.851"/>
<polygon fill="#0d0d73" stroke="#0d0d73" stroke-width="0.5" points="655.321,-424.028 655.352,-420.32 653.015,-423.2 655.321,-424.028"/>
<text text-anchor="middle" x="666.5" y="-458" font-family="Arial" font-size="10.00" fill="#0d0d73">0.00%</text>
<text text-anchor="middle" x="666.5" y="-447" font-family="Arial" font-size="10.00" fill="#0d0d73">1×</text>
</g>
<!-- 6 -->
<g id="node16" class="node"><title>6</title>
<polygon fill="#0d307d" stroke="#0d307d" points="572,-623 481,-623 481,-582 572,-582 572,-623"/>
<text text-anchor="middle" x="526.5" y="-611" font-family="Arial" font-size="10.00" fill="#ffffff">_mcount_internal</text>
<text text-anchor="middle" x="526.5" y="-600" font-family="Arial" font-size="10.00" fill="#ffffff">7.86%</text>
<text text-anchor="middle" x="526.5" y="-589" font-family="Arial" font-size="10.00" fill="#ffffff">(7.86%)</text>
</g>
<!-- 9 -->
<g id="node18" class="node"><title>9</title>
<polygon fill="#0d0d73" stroke="#0d0d73" points="667.5,-623 581.5,-623 581.5,-582 667.5,-582 667.5,-623"/>
<text text-anchor="middle" x="624.5" y="-611" font-family="Arial" font-size="10.00" fill="#ffffff">unknow_module</text>
<text text-anchor="middle" x="624.5" y="-600" font-family="Arial" font-size="10.00" fill="#ffffff">0.02%</text>
<text text-anchor="middle" x="624.5" y="-589" font-family="Arial" font-size="10.00" fill="#ffffff">(0.02%)</text>
</g>
<!-- 15 -->
<g id="node21" class="node"><title>15</title>
<polygon fill="#0d0d73" stroke="#0d0d73" points="434.5,-328 384.5,-328 384.5,-276 434.5,-276 434.5,-328"/>
<text text-anchor="middle" x="409.5" y="-316" font-family="Arial" font-size="10.00" fill="#ffffff">dlfree</text>
<text text-anchor="middle" x="409.5" y="-305" font-family="Arial" font-size="10.00" fill="#ffffff">0.00%</text>
<text text-anchor="middle" x="409.5" y="-294" font-family="Arial" font-size="10.00" fill="#ffffff">(0.00%)</text>
<text text-anchor="middle" x="409.5" y="-283" font-family="Arial" font-size="10.00" fill="#ffffff">99×</text>
</g>
<!-- 16 -->
<g id="node22" class="node"><title>16</title>
<polygon fill="#0d0d73" stroke="#0d0d73" points="583,-328 530,-328 530,-276 583,-276 583,-328"/>
<text text-anchor="middle" x="556.5" y="-316" font-family="Arial" font-size="10.00" fill="#ffffff">dlmalloc</text>
<text text-anchor="middle" x="556.5" y="-305" font-family="Arial" font-size="10.00" fill="#ffffff">0.00%</text>
<text text-anchor="middle" x="556.5" y="-294" font-family="Arial" font-size="10.00" fill="#ffffff">(0.00%)</text>
<text text-anchor="middle" x="556.5" y="-283" font-family="Arial" font-size="10.00" fill="#ffffff">99×</text>
</g>
<!-- 24 -->
<g id="node23" class="node"><title>24</title>
<polygon fill="#0d0d73" stroke="#0d0d73" points="556.5,-236 482.5,-236 482.5,-184 556.5,-184 556.5,-236"/>
<text text-anchor="middle" x="519.5" y="-224" font-family="Arial" font-size="10.00" fill="#ffffff">tmalloc_large</text>
<text text-anchor="middle" x="519.5" y="-213" font-family="Arial" font-size="10.00" fill="#ffffff">0.00%</text>
<text text-anchor="middle" x="519.5" y="-202" font-family="Arial" font-size="10.00" fill="#ffffff">(0.00%)</text>
<text text-anchor="middle" x="519.5" y="-191" font-family="Arial" font-size="10.00" fill="#ffffff">96×</text>
</g>
<!-- 16&#45;&gt;24 -->
<g id="edge18" class="edge"><title>16&#45;&gt;24</title>
<path fill="none" stroke="#0d0d73" stroke-width="0.5" d="M542.674,-275.968C541.195,-272.979 539.769,-269.944 538.5,-267 534.766,-258.338 531.265,-248.681 528.311,-239.858"/>
<polygon fill="#0d0d73" stroke="#0d0d73" stroke-width="0.5" points="529.341,-239.072 527.079,-236.133 527.015,-239.841 529.341,-239.072"/>
<text text-anchor="middle" x="552.5" y="-259" font-family="Arial" font-size="10.00" fill="#0d0d73">0.00%</text>
<text text-anchor="middle" x="552.5" y="-248" font-family="Arial" font-size="10.00" fill="#0d0d73">96×</text>
</g>
<!-- 34 -->
<g id="node24" class="node"><title>34</title>
<polygon fill="#0d0d73" stroke="#0d0d73" points="623.5,-236 565.5,-236 565.5,-184 623.5,-184 623.5,-236"/>
<text text-anchor="middle" x="594.5" y="-224" font-family="Arial" font-size="10.00" fill="#ffffff">sys_alloc</text>
<text text-anchor="middle" x="594.5" y="-213" font-family="Arial" font-size="10.00" fill="#ffffff">0.00%</text>
<text text-anchor="middle" x="594.5" y="-202" font-family="Arial" font-size="10.00" fill="#ffffff">(0.00%)</text>
<text text-anchor="middle" x="594.5" y="-191" font-family="Arial" font-size="10.00" fill="#ffffff">1×</text>
</g>
<!-- 16&#45;&gt;34 -->
<g id="edge19" class="edge"><title>16&#45;&gt;34</title>
<path fill="none" stroke="#0d0d73" stroke-width="0.5" d="M567.085,-275.93C571.863,-264.615 577.53,-251.193 582.468,-239.497"/>
<polygon fill="#0d0d73" stroke="#0d0d73" stroke-width="0.5" points="583.607,-239.949 583.84,-236.248 581.35,-238.996 583.607,-239.949"/>
<text text-anchor="middle" x="594.5" y="-259" font-family="Arial" font-size="10.00" fill="#0d0d73">0.00%</text>
<text text-anchor="middle" x="594.5" y="-248" font-family="Arial" font-size="10.00" fill="#0d0d73">1×</text>
</g>
<!-- 29 -->
<g id="node31" class="node"><title>29</title>
<polygon fill="#0d0d73" stroke="#0d0d73" points="632,-144 557,-144 557,-92 632,-92 632,-144"/>
<text text-anchor="middle" x="594.5" y="-132" font-family="Arial" font-size="10.00" fill="#ffffff">add_segment</text>
<text text-anchor="middle" x="594.5" y="-121" font-family="Arial" font-size="10.00" fill="#ffffff">0.00%</text>
<text text-anchor="middle" x="594.5" y="-110" font-family="Arial" font-size="10.00" fill="#ffffff">(0.00%)</text>
<text text-anchor="middle" x="594.5" y="-99" font-family="Arial" font-size="10.00" fill="#ffffff">1×</text>
</g>
<!-- 34&#45;&gt;29 -->
<g id="edge33" class="edge"><title>34&#45;&gt;29</title>
<path fill="none" stroke="#0d0d73" stroke-width="0.5" d="M594.5,-183.93C594.5,-172.712 594.5,-159.422 594.5,-147.798"/>
<polygon fill="#0d0d73" stroke="#0d0d73" stroke-width="0.5" points="595.725,-147.748 594.5,-144.248 593.275,-147.748 595.725,-147.748"/>
<text text-anchor="middle" x="608.5" y="-167" font-family="Arial" font-size="10.00" fill="#0d0d73">0.00%</text>
<text text-anchor="middle" x="608.5" y="-156" font-family="Arial" font-size="10.00" fill="#0d0d73">1×</text>
</g>
<!-- 18&#45;&gt;15 -->
<g id="edge21" class="edge"><title>18&#45;&gt;15</title>
<path fill="none" stroke="#0d0d73" stroke-width="0.5" d="M415.993,-367.93C414.871,-356.712 413.542,-343.422 412.38,-331.798"/>
<polygon fill="#0d0d73" stroke="#0d0d73" stroke-width="0.5" points="413.592,-331.608 412.025,-328.248 411.154,-331.852 413.592,-331.608"/>
<text text-anchor="middle" x="429.5" y="-351" font-family="Arial" font-size="10.00" fill="#0d0d73">0.00%</text>
<text text-anchor="middle" x="429.5" y="-340" font-family="Arial" font-size="10.00" fill="#0d0d73">99×</text>
</g>
<!-- 19&#45;&gt;16 -->
<g id="edge22" class="edge"><title>19&#45;&gt;16</title>
<path fill="none" stroke="#0d0d73" stroke-width="0.5" d="M504.942,-367.888C507.516,-364.913 510.082,-361.903 512.5,-359 520.03,-349.96 528.041,-339.903 535.135,-330.834"/>
<polygon fill="#0d0d73" stroke="#0d0d73" stroke-width="0.5" points="536.118,-331.566 537.306,-328.054 534.187,-330.059 536.118,-331.566"/>
<text text-anchor="middle" x="544.5" y="-351" font-family="Arial" font-size="10.00" fill="#0d0d73">0.00%</text>
<text text-anchor="middle" x="544.5" y="-340" font-family="Arial" font-size="10.00" fill="#0d0d73">99×</text>
</g>
<!-- 22 -->
<g id="node27" class="node"><title>22</title>
<polygon fill="#0d0d73" stroke="#0d0d73" points="521,-328 444,-328 444,-276 521,-276 521,-328"/>
<text text-anchor="middle" x="482.5" y="-316" font-family="Arial" font-size="10.00" fill="#ffffff">pre_alloc_phy</text>
<text text-anchor="middle" x="482.5" y="-305" font-family="Arial" font-size="10.00" fill="#ffffff">0.00%</text>
<text text-anchor="middle" x="482.5" y="-294" font-family="Arial" font-size="10.00" fill="#ffffff">(0.00%)</text>
<text text-anchor="middle" x="482.5" y="-283" font-family="Arial" font-size="10.00" fill="#ffffff">99×</text>
</g>
<!-- 19&#45;&gt;22 -->
<g id="edge23" class="edge"><title>19&#45;&gt;22</title>
<path fill="none" stroke="#0d0d73" stroke-width="0.5" d="M482.5,-367.93C482.5,-356.712 482.5,-343.422 482.5,-331.798"/>
<polygon fill="#0d0d73" stroke="#0d0d73" stroke-width="0.5" points="483.725,-331.748 482.5,-328.248 481.275,-331.748 483.725,-331.748"/>
<text text-anchor="middle" x="496.5" y="-351" font-family="Arial" font-size="10.00" fill="#0d0d73">0.00%</text>
<text text-anchor="middle" x="496.5" y="-340" font-family="Arial" font-size="10.00" fill="#0d0d73">99×</text>
</g>
<!-- 30 -->
<g id="node32" class="node"><title>30</title>
<polygon fill="#0d0d73" stroke="#0d0d73" points="580.5,-52 530.5,-52 530.5,-0 580.5,-0 580.5,-52"/>
<text text-anchor="middle" x="555.5" y="-40" font-family="Arial" font-size="10.00" fill="#ffffff">init_top</text>
<text text-anchor="middle" x="555.5" y="-29" font-family="Arial" font-size="10.00" fill="#ffffff">0.00%</text>
<text text-anchor="middle" x="555.5" y="-18" font-family="Arial" font-size="10.00" fill="#ffffff">(0.00%)</text>
<text text-anchor="middle" x="555.5" y="-7" font-family="Arial" font-size="10.00" fill="#ffffff">1×</text>
</g>
<!-- 29&#45;&gt;30 -->
<g id="edge28" class="edge"><title>29&#45;&gt;30</title>
<path fill="none" stroke="#0d0d73" stroke-width="0.5" d="M583.636,-91.93C578.733,-80.6149 572.917,-67.193 567.849,-55.4975"/>
<polygon fill="#0d0d73" stroke="#0d0d73" stroke-width="0.5" points="568.956,-54.9721 566.441,-52.2477 566.708,-55.9463 568.956,-54.9721"/>
<text text-anchor="middle" x="594.5" y="-75" font-family="Arial" font-size="10.00" fill="#0d0d73">0.00%</text>
<text text-anchor="middle" x="594.5" y="-64" font-family="Arial" font-size="10.00" fill="#0d0d73">1×</text>
</g>
<!-- 32 -->
<g id="node33" class="node"><title>32</title>
<polygon fill="#0d0d73" stroke="#0d0d73" points="679.5,-52 589.5,-52 589.5,-0 679.5,-0 679.5,-52"/>
<text text-anchor="middle" x="634.5" y="-40" font-family="Arial" font-size="10.00" fill="#ffffff">segment_holding</text>
<text text-anchor="middle" x="634.5" y="-29" font-family="Arial" font-size="10.00" fill="#ffffff">0.00%</text>
<text text-anchor="middle" x="634.5" y="-18" font-family="Arial" font-size="10.00" fill="#ffffff">(0.00%)</text>
<text text-anchor="middle" x="634.5" y="-7" font-family="Arial" font-size="10.00" fill="#ffffff">1×</text>
</g>
<!-- 29&#45;&gt;32 -->
<g id="edge29" class="edge"><title>29&#45;&gt;32</title>
<path fill="none" stroke="#0d0d73" stroke-width="0.5" d="M606.481,-91.7943C607.852,-88.8366 609.216,-85.8562 610.5,-83 614.516,-74.0636 618.768,-64.2629 622.559,-55.3931"/>
<polygon fill="#0d0d73" stroke="#0d0d73" stroke-width="0.5" points="623.687,-55.8708 623.934,-52.1707 621.434,-54.9094 623.687,-55.8708"/>
<text text-anchor="middle" x="634.5" y="-75" font-family="Arial" font-size="10.00" fill="#0d0d73">0.00%</text>
<text text-anchor="middle" x="634.5" y="-64" font-family="Arial" font-size="10.00" fill="#0d0d73">1×</text>
</g>
<!-- 31&#45;&gt;25 -->
<g id="edge30" class="edge"><title>31&#45;&gt;25</title>
<path fill="none" stroke="#0d0d73" stroke-width="0.5" d="M669.822,-367.883C671.286,-358.014 673.661,-346.739 677.5,-337 678.241,-335.12 679.094,-333.233 680.023,-331.364"/>
<polygon fill="#0d0d73" stroke="#0d0d73" stroke-width="0.5" points="681.232,-331.696 681.77,-328.027 679.061,-330.56 681.232,-331.696"/>
<text text-anchor="middle" x="691.5" y="-351" font-family="Arial" font-size="10.00" fill="#0d0d73">0.00%</text>
<text text-anchor="middle" x="691.5" y="-340" font-family="Arial" font-size="10.00" fill="#0d0d73">1×</text>
</g>
<!-- 31&#45;&gt;27 -->
<g id="edge31" class="edge"><title>31&#45;&gt;27</title>
<path fill="none" stroke="#0d0d73" stroke-width="0.5" d="M647.825,-367.907C645.902,-364.98 644.082,-361.976 642.5,-359 638.006,-350.545 634.143,-340.866 631.044,-331.959"/>
<polygon fill="#0d0d73" stroke="#0d0d73" stroke-width="0.5" points="632.05,-331.114 629.763,-328.195 629.731,-331.903 632.05,-331.114"/>
<text text-anchor="middle" x="656.5" y="-351" font-family="Arial" font-size="10.00" fill="#0d0d73">0.00%</text>
<text text-anchor="middle" x="656.5" y="-340" font-family="Arial" font-size="10.00" fill="#0d0d73">1×</text>
</g>
</g>
</svg>
